<?xml version="1.0" encoding="utf-8"?>
<!-- Generator: Adobe Illustrator 21.0.2, SVG Export Plug-In . SVG Version: 6.00 Build 0)  -->
<!DOCTYPE svg PUBLIC "-//W3C//DTD SVG 1.1//EN" "http://www.w3.org/Graphics/SVG/1.1/DTD/svg11.dtd">
<svg version="1.1" id="Calque_1" xmlns="http://www.w3.org/2000/svg" xmlns:xlink="http://www.w3.org/1999/xlink" x="0px" y="0px"
	 viewBox="0 0 48 48" style="enable-background:new 0 0 48 48;" xml:space="preserve">
<style type="text/css">
	.st0{fill:#FFFFFF;}
</style>
<g id="Expanded">
	<g>
		<g>
			<path class="st0" d="M26,48h-4c-1.7,0-3-1.3-3-3v-3.7c-1.3-0.4-2.5-0.9-3.7-1.5l-2.6,2.6c-1.1,1.1-3.1,1.1-4.2,0l-2.8-2.8
				C5,39,4.7,38.2,4.7,37.4s0.3-1.6,0.9-2.1l2.6-2.6c-0.6-1.2-1.2-2.4-1.5-3.7H3c-1.7,0-3-1.3-3-3v-4c0-0.8,0.3-1.6,0.9-2.1
				C1.4,19.3,2.2,19,3,19h3.7c0.4-1.3,0.9-2.5,1.5-3.7l-2.6-2.6c-1.2-1.2-1.2-3.1,0-4.2l2.8-2.8c1.1-1.1,3.1-1.1,4.2,0l2.6,2.6
				c1.2-0.6,2.4-1.2,3.7-1.5V3c0-1.7,1.3-3,3-3h4c1.7,0,3,1.3,3,3v3.7c1.3,0.4,2.5,0.9,3.7,1.5l2.6-2.6c1.1-1.1,3.1-1.1,4.2,0
				l2.8,2.8c0.6,0.6,0.9,1.3,0.9,2.1s-0.3,1.6-0.9,2.1l-2.6,2.6c0.6,1.2,1.2,2.4,1.5,3.7H45c1.7,0,3,1.3,3,3v4
				c0,0.8-0.3,1.6-0.9,2.1S45.8,29,45,29h-3.7c-0.4,1.3-0.9,2.5-1.5,3.7l2.6,2.6c1.2,1.2,1.2,3.1,0,4.2l-2.8,2.8
				c-1.1,1.1-3.1,1.1-4.2,0l-2.6-2.6c-1.2,0.6-2.4,1.2-3.7,1.5V45C29,46.7,27.7,48,26,48z M15.2,37.5c0.2,0,0.4,0,0.5,0.1
				c1.4,0.9,2.9,1.5,4.6,1.9c0.4,0.1,0.8,0.5,0.8,1V45c0,0.6,0.4,1,1,1h4c0.6,0,1-0.4,1-1v-4.5c0-0.5,0.3-0.9,0.8-1
				c1.6-0.4,3.1-1,4.6-1.9c0.4-0.2,0.9-0.2,1.2,0.1l3.2,3.2c0.4,0.4,1,0.4,1.4,0l2.8-2.8c0.4-0.4,0.4-1,0-1.4l-3.2-3.2
				c-0.3-0.3-0.4-0.8-0.1-1.2c0.9-1.4,1.5-2.9,1.9-4.6c0.1-0.4,0.5-0.8,1-0.8H45c0.3,0,0.5-0.1,0.7-0.3c0.2-0.2,0.3-0.4,0.3-0.7v-4
				c0-0.6-0.4-1-1-1h-4.5c-0.5,0-0.9-0.3-1-0.8c-0.4-1.6-1-3.1-1.9-4.6c-0.2-0.4-0.2-0.9,0.1-1.2l3.2-3.2c0.2-0.2,0.3-0.4,0.3-0.7
				S41.2,10,41,9.9L38.1,7c-0.4-0.4-1-0.4-1.4,0l-3.2,3.2c-0.3,0.3-0.8,0.4-1.2,0.1c-1.4-0.9-2.9-1.5-4.6-1.9C27.3,8.4,27,8,27,7.5
				V3c0-0.6-0.4-1-1-1h-4c-0.6,0-1,0.4-1,1v4.5c0,0.5-0.3,0.9-0.8,1c-1.6,0.4-3.1,1-4.6,1.9c-0.4,0.2-0.9,0.2-1.2-0.1L11.3,7
				c-0.4-0.4-1-0.4-1.4,0L7,9.9c-0.4,0.4-0.4,1,0,1.4l3.2,3.2c0.3,0.3,0.4,0.8,0.1,1.2c-0.9,1.4-1.5,2.9-1.9,4.6
				C8.4,20.7,8,21,7.5,21H3c-0.3,0-0.5,0.1-0.7,0.3C2.1,21.5,2,21.7,2,22v4c0,0.6,0.4,1,1,1h4.5c0.5,0,0.9,0.3,1,0.8
				c0.4,1.6,1,3.1,1.9,4.6c0.2,0.4,0.2,0.9-0.1,1.2L7,36.7c-0.2,0.2-0.3,0.4-0.3,0.7S6.8,38,7,38.1L9.9,41c0.4,0.4,1,0.4,1.4,0
				l3.2-3.2C14.6,37.6,14.9,37.5,15.2,37.5z"/>
		</g>
		<g>
			<path class="st0" d="M24,34c-5.5,0-10-4.5-10-10s4.5-10,10-10s10,4.5,10,10S29.5,34,24,34z M24,16c-4.4,0-8,3.6-8,8s3.6,8,8,8
				s8-3.6,8-8S28.4,16,24,16z"/>
		</g>
	</g>
</g>
</svg>
